<svg width="150" height="150" viewBox="0 0 150 150" fill="none" xmlns="http://www.w3.org/2000/svg">
  <rect width="150" height="150" fill="black"/>
  <path d="M14.25 98V90.875H7.125V69.5H14.25V62.375H35.625V69.5H42.75V76.625H28.5V69.5H21.375V90.875H28.5V83.75H42.75V90.875H35.625V98H14.25ZM64.125 98V90.875H57V69.5H64.125V62.375H85.5V69.5H92.625V76.625H78.375V69.5H71.25V90.875H78.375V83.75H92.625V90.875H85.5V98H64.125ZM114 98V90.875H106.875V69.5H114V62.375H135.375V69.5H142.5V90.875H135.375V98H114ZM121.125 90.59H128.25V69.785H121.125V90.59Z" fill="white"/>
</svg>