<svg width="150" height="73" viewBox="0 0 150 73" fill="none" xmlns="http://www.w3.org/2000/svg">
<mask id="path-1-outside-1_2351_4" maskUnits="userSpaceOnUse" x="5" y="21" width="140" height="40" fill="black">
<rect fill="white" x="5" y="21" width="140" height="40"/>
<path d="M14.25 59V51.875H7.125V30.5H14.25V23.375H35.625V30.5H42.75V37.625H28.5V30.5H21.375V51.875H28.5V44.75H42.75V51.875H35.625V59H14.25ZM64.125 59V51.875H57V30.5H64.125V23.375H85.5V30.5H92.625V37.625H78.375V30.5H71.25V51.875H78.375V44.75H92.625V51.875H85.5V59H64.125ZM114 59V51.875H106.875V30.5H114V23.375H135.375V30.5H142.5V51.875H135.375V59H114ZM121.125 51.59H128.25V30.785H121.125V51.59Z"/>
</mask>
<path d="M14.25 59V51.875H7.125V30.5H14.25V23.375H35.625V30.5H42.75V37.625H28.5V30.5H21.375V51.875H28.5V44.75H42.75V51.875H35.625V59H14.25ZM64.125 59V51.875H57V30.5H64.125V23.375H85.5V30.5H92.625V37.625H78.375V30.5H71.25V51.875H78.375V44.75H92.625V51.875H85.5V59H64.125ZM114 59V51.875H106.875V30.5H114V23.375H135.375V30.5H142.5V51.875H135.375V59H114ZM121.125 51.59H128.25V30.785H121.125V51.59Z" fill="white"/>
<path d="M14.25 59H12.25V61H14.25V59ZM14.25 51.875H16.25V49.875H14.25V51.875ZM7.125 51.875H5.125V53.875H7.125V51.875ZM7.125 30.5V28.5H5.125V30.5H7.125ZM14.25 30.5V32.5H16.25V30.5H14.25ZM14.25 23.375V21.375H12.25V23.375H14.25ZM35.625 23.375H37.625V21.375H35.625V23.375ZM35.625 30.5H33.625V32.5H35.625V30.5ZM42.75 30.5H44.75V28.5H42.75V30.5ZM42.75 37.625V39.625H44.75V37.625H42.75ZM28.5 37.625H26.5V39.625H28.5V37.625ZM28.5 30.5H30.5V28.5H28.5V30.5ZM21.375 30.5V28.5H19.375V30.5H21.375ZM21.375 51.875H19.375V53.875H21.375V51.875ZM28.5 51.875V53.875H30.5V51.875H28.5ZM28.5 44.75V42.75H26.5V44.75H28.5ZM42.75 44.75H44.75V42.75H42.75V44.75ZM42.75 51.875V53.875H44.75V51.875H42.75ZM35.625 51.875V49.875H33.625V51.875H35.625ZM35.625 59V61H37.625V59H35.625ZM16.25 59V51.875H12.25V59H16.25ZM14.25 49.875H7.125V53.875H14.25V49.875ZM9.125 51.875V30.5H5.125V51.875H9.125ZM7.125 32.5H14.25V28.5H7.125V32.5ZM16.25 30.5V23.375H12.25V30.5H16.25ZM14.25 25.375H35.625V21.375H14.25V25.375ZM33.625 23.375V30.5H37.625V23.375H33.625ZM35.625 32.5H42.75V28.5H35.625V32.5ZM40.75 30.5V37.625H44.75V30.5H40.75ZM42.75 35.625H28.5V39.625H42.75V35.625ZM30.5 37.625V30.5H26.5V37.625H30.5ZM28.5 28.5H21.375V32.5H28.5V28.5ZM19.375 30.5V51.875H23.375V30.5H19.375ZM21.375 53.875H28.5V49.875H21.375V53.875ZM30.5 51.875V44.75H26.5V51.875H30.5ZM28.5 46.75H42.75V42.75H28.5V46.75ZM40.75 44.75V51.875H44.75V44.75H40.75ZM42.75 49.875H35.625V53.875H42.75V49.875ZM33.625 51.875V59H37.625V51.875H33.625ZM35.625 57H14.25V61H35.625V57ZM64.125 59H62.125V61H64.125V59ZM64.125 51.875H66.125V49.875H64.125V51.875ZM57 51.875H55V53.875H57V51.875ZM57 30.5V28.5H55V30.5H57ZM64.125 30.5V32.5H66.125V30.5H64.125ZM64.125 23.375V21.375H62.125V23.375H64.125ZM85.5 23.375H87.5V21.375H85.5V23.375ZM85.5 30.5H83.5V32.5H85.5V30.5ZM92.625 30.5H94.625V28.5H92.625V30.5ZM92.625 37.625V39.625H94.625V37.625H92.625ZM78.375 37.625H76.375V39.625H78.375V37.625ZM78.375 30.5H80.375V28.5H78.375V30.5ZM71.25 30.5V28.5H69.25V30.5H71.25ZM71.25 51.875H69.25V53.875H71.25V51.875ZM78.375 51.875V53.875H80.375V51.875H78.375ZM78.375 44.75V42.75H76.375V44.75H78.375ZM92.625 44.75H94.625V42.75H92.625V44.75ZM92.625 51.875V53.875H94.625V51.875H92.625ZM85.5 51.875V49.875H83.5V51.875H85.5ZM85.5 59V61H87.5V59H85.5ZM66.125 59V51.875H62.125V59H66.125ZM64.125 49.875H57V53.875H64.125V49.875ZM59 51.875V30.5H55V51.875H59ZM57 32.5H64.125V28.5H57V32.5ZM66.125 30.5V23.375H62.125V30.5H66.125ZM64.125 25.375H85.5V21.375H64.125V25.375ZM83.5 23.375V30.5H87.5V23.375H83.5ZM85.5 32.5H92.625V28.5H85.5V32.5ZM90.625 30.5V37.625H94.625V30.5H90.625ZM92.625 35.625H78.375V39.625H92.625V35.625ZM80.375 37.625V30.5H76.375V37.625H80.375ZM78.375 28.5H71.25V32.5H78.375V28.5ZM69.25 30.5V51.875H73.25V30.5H69.25ZM71.25 53.875H78.375V49.875H71.25V53.875ZM80.375 51.875V44.75H76.375V51.875H80.375ZM78.375 46.75H92.625V42.75H78.375V46.75ZM90.625 44.75V51.875H94.625V44.75H90.625ZM92.625 49.875H85.5V53.875H92.625V49.875ZM83.5 51.875V59H87.5V51.875H83.5ZM85.5 57H64.125V61H85.5V57ZM114 59H112V61H114V59ZM114 51.875H116V49.875H114V51.875ZM106.875 51.875H104.875V53.875H106.875V51.875ZM106.875 30.5V28.5H104.875V30.5H106.875ZM114 30.5V32.5H116V30.5H114ZM114 23.375V21.375H112V23.375H114ZM135.375 23.375H137.375V21.375H135.375V23.375ZM135.375 30.5H133.375V32.5H135.375V30.5ZM142.5 30.5H144.5V28.5H142.5V30.5ZM142.5 51.875V53.875H144.5V51.875H142.5ZM135.375 51.875V49.875H133.375V51.875H135.375ZM135.375 59V61H137.375V59H135.375ZM121.125 51.59H119.125V53.59H121.125V51.59ZM128.25 51.59V53.59H130.25V51.59H128.25ZM128.25 30.785H130.25V28.785H128.25V30.785ZM121.125 30.785V28.785H119.125V30.785H121.125ZM116 59V51.875H112V59H116ZM114 49.875H106.875V53.875H114V49.875ZM108.875 51.875V30.5H104.875V51.875H108.875ZM106.875 32.5H114V28.5H106.875V32.5ZM116 30.5V23.375H112V30.5H116ZM114 25.375H135.375V21.375H114V25.375ZM133.375 23.375V30.5H137.375V23.375H133.375ZM135.375 32.5H142.5V28.5H135.375V32.5ZM140.5 30.5V51.875H144.5V30.5H140.5ZM142.5 49.875H135.375V53.875H142.5V49.875ZM133.375 51.875V59H137.375V51.875H133.375ZM135.375 57H114V61H135.375V57ZM121.125 53.59H128.25V49.59H121.125V53.59ZM130.25 51.59V30.785H126.25V51.59H130.25ZM128.25 28.785H121.125V32.785H128.25V28.785ZM119.125 30.785V51.59H123.125V30.785H119.125Z" fill="black" mask="url(#path-1-outside-1_2351_4)"/>
</svg>
